<svg id="Layer_1" data-name="Layer 1" xmlns="http://www.w3.org/2000/svg" viewBox="0 0 283.46 141.73"><defs><style>.cls-1{fill:#ffc10d;}.cls-2{fill:#1b3d59;}</style></defs><path class="cls-1" d="M81.36,64H98.88l-1.12,5.72H87l-.57,2.9h9.42L94.73,78.3H85.3l-1.65,8.56H76.92Z"/><path class="cls-2" d="M81.4,64H91.5l-2.66,13.6q-.65.21-1.56.42c-.62.15-1.3.29-2,.41s-1.49.22-2.29.28-1.56.11-2.3.11a14.18,14.18,0,0,1-5.07-.85,9.05,9.05,0,0,1-3.6-2.4,8.38,8.38,0,0,1-1.91-3.78,11.89,11.89,0,0,1,0-4.93,14.55,14.55,0,0,1,1.92-5,14,14,0,0,1,3.4-3.75A15.23,15.23,0,0,1,80,55.72a17.7,17.7,0,0,1,5.53-.84c.75,0,1.48,0,2.21.1a20.8,20.8,0,0,1,2.07.27c.65.11,1.25.24,1.79.38a12.34,12.34,0,0,1,1.38.46l-1.15,6a16.85,16.85,0,0,0-2.93-.89,15.85,15.85,0,0,0-3.53-.39,9.72,9.72,0,0,0-5.8,1.58,7,7,0,0,0-2.76,4.45,6.16,6.16,0,0,0,0,2.34,4.49,4.49,0,0,0,.82,1.92,4.25,4.25,0,0,0,1.65,1.29,5.76,5.76,0,0,0,2.45.48l.82,0a6.55,6.55,0,0,0,.83-.09l.6-3h-3.7Z"/><path class="cls-2" d="M118.66,72.24c0-5.57,4.55-10.47,11.22-10.47,3.5,0,6.05,1.42,7.25,3l-3.25,3.15a6,6,0,0,0-4.32-1.8,5.84,5.84,0,0,0-6,6,3.6,3.6,0,0,0,3.92,3.72,5.43,5.43,0,0,0,2.33-.47l.69-2.35h-3.37l.93-3.55h8l-2.5,8.82A13.1,13.1,0,0,1,127.08,80C122.91,80,118.66,77.61,118.66,72.24Z"/><path class="cls-2" d="M144.06,76.39a4.73,4.73,0,0,0,2.87-1.07l2.2,2.59a8.14,8.14,0,0,1-5.52,2c-4,0-6.45-2.35-6.45-6a8.11,8.11,0,0,1,8.12-8.15c4,0,5.75,2.68,5.75,5.6a8.07,8.07,0,0,1-.53,2.78h-9A2.25,2.25,0,0,0,144.06,76.39Zm2.62-4.65a2.14,2.14,0,0,0,.13-.72A1.68,1.68,0,0,0,145,69.29a3.34,3.34,0,0,0-3.1,2.45Z"/><path class="cls-2" d="M152.73,76.69a7.92,7.92,0,0,1,.25-1.77l1.35-5h-1.6l1-3.83h1.6l.92-3.42H161l-.92,3.42h3.15l-1,3.83h-3.15l-1.15,4.25a4.36,4.36,0,0,0-.12.82c0,.55.32.85,1.07.85a5.34,5.34,0,0,0,1.8-.37l-1.05,3.94a8.52,8.52,0,0,1-2.8.48C154.08,79.89,152.73,78.69,152.73,76.69Z"/><path class="cls-1" d="M166.63,62.12h14l-1.15,4.25h-9.12l-.8,3h8.24l-1.07,4h-8.25l-1.67,6.24h-4.88Z"/><path class="cls-1" d="M185.88,76.39a4.76,4.76,0,0,0,2.88-1.07L191,77.91a8.12,8.12,0,0,1-5.52,2c-4,0-6.45-2.35-6.45-6a8.12,8.12,0,0,1,8.13-8.15c4,0,5.74,2.68,5.74,5.6a8.3,8.3,0,0,1-.52,2.78h-9A2.24,2.24,0,0,0,185.88,76.39Zm2.63-4.65a2.41,2.41,0,0,0,.12-.72,1.68,1.68,0,0,0-1.85-1.73,3.36,3.36,0,0,0-3.1,2.45Z"/><path class="cls-1" d="M200.91,76.39a4.75,4.75,0,0,0,2.87-1.07l2.2,2.59a8.14,8.14,0,0,1-5.52,2c-4,0-6.45-2.35-6.45-6a8.11,8.11,0,0,1,8.12-8.15c4,0,5.75,2.68,5.75,5.6a8.07,8.07,0,0,1-.53,2.78h-9A2.25,2.25,0,0,0,200.91,76.39Zm2.62-4.65a2.14,2.14,0,0,0,.13-.72,1.68,1.68,0,0,0-1.85-1.73,3.34,3.34,0,0,0-3.1,2.45Z"/><path class="cls-2" d="M213.63,64.92a2.48,2.48,0,1,1-2.47-2.46A2.41,2.41,0,0,1,213.63,64.92Zm-.48,0a1.94,1.94,0,0,0-2-2,2,2,0,1,0,2,2Zm-1.21.46.59.91h-.73l-.51-.78h-.48v.78h-.73V63.57h1.19c.74,0,1.18.38,1.18,1A.86.86,0,0,1,211.94,65.38Zm-.72-.42c.33,0,.51-.16.51-.42s-.18-.43-.51-.43h-.42V65Z"/></svg>